<?xml version="1.0" encoding="utf-8"?>
<!-- Generator: Adobe Illustrator 24.0.1, SVG Export Plug-In . SVG Version: 6.00 Build 0)  -->
<svg version="1.1" id="Layer_1" xmlns="http://www.w3.org/2000/svg" xmlns:xlink="http://www.w3.org/1999/xlink" x="0px" y="0px"
	 viewBox="0 0 400 283.5" style="enable-background:new 0 0 400 283.5;" xml:space="preserve">
<style type="text/css">
	.st0{fill:#FFFFFF;stroke:#000000;stroke-width:20;stroke-miterlimit:10;}
</style>
<path class="st0" d="M201.6,107.7c-4.1,0-8.2,0.5-12,1.4c-11.7-16.3-30.8-26.9-52.3-26.9S96.6,92.8,85,109.1
	c-3.9-0.9-7.9-1.4-12-1.4c-28.3,0-51.3,23-51.3,51.3s23,51.3,51.3,51.3c11.1,0,21.3-3.5,29.7-9.5c10,6.4,21.9,10.1,34.6,10.1
	s24.6-3.7,34.6-10.1c8.4,6,18.6,9.5,29.7,9.5c28.3,0,51.3-23,51.3-51.3S229.9,107.7,201.6,107.7z"/>
<path class="st0" d="M266,107.7c-4.1,0-8.2,0.5-12,1.4c-11.7-16.3-30.8-26.9-52.3-26.9s-40.7,10.6-52.3,26.9
	c-3.9-0.9-7.9-1.4-12-1.4c-28.3,0-51.3,23-51.3,51.3s23,51.3,51.3,51.3c11.1,0,21.3-3.5,29.7-9.5c10,6.4,21.9,10.1,34.6,10.1
	s24.6-3.7,34.6-10.1c8.4,6,18.6,9.5,29.7,9.5c28.3,0,51.3-23,51.3-51.3S294.3,107.7,266,107.7z"/>
<path class="st0" d="M328.6,107.7c-4.1,0-8.2,0.5-12,1.4c-11.7-16.3-30.8-26.9-52.3-26.9s-40.7,10.6-52.3,26.9
	c-3.9-0.9-7.9-1.4-12-1.4c-28.3,0-51.3,23-51.3,51.3s23,51.3,51.3,51.3c11.1,0,21.3-3.5,29.7-9.5c10,6.4,21.9,10.1,34.6,10.1
	c12.7,0,24.6-3.7,34.6-10.1c8.4,6,18.6,9.5,29.7,9.5c28.3,0,51.3-23,51.3-51.3S356.9,107.7,328.6,107.7z"/>
</svg>
