<?xml version="1.0" encoding="utf-8"?>
<!-- Generator: Adobe Illustrator 24.0.1, SVG Export Plug-In . SVG Version: 6.00 Build 0)  -->
<svg version="1.1" id="Layer_1" xmlns="http://www.w3.org/2000/svg" xmlns:xlink="http://www.w3.org/1999/xlink" x="0px" y="0px"
	 viewBox="0 0 400 400" style="enable-background:new 0 0 400 400;" xml:space="preserve">
<style type="text/css">
	.st0{fill:#FFFFFF;}
	.st1{fill:#FFFFFF;stroke:#000000;stroke-width:10;stroke-miterlimit:10;}
</style>
<rect x="0" class="st0" width="400" height="400"/>
<path class="st1" d="M202.6,148.5c-4.1,0-8.2,0.5-12,1.4c-11.7-16.3-30.8-26.9-52.3-26.9s-40.7,10.6-52.3,26.9
	c-3.9-0.9-7.9-1.4-12-1.4c-28.3,0-51.3,23-51.3,51.3c0,28.3,23,51.3,51.3,51.3c11.1,0,21.3-3.5,29.7-9.5c10,6.4,21.9,10.1,34.6,10.1
	s24.6-3.7,34.6-10.1c8.4,6,18.6,9.5,29.7,9.5c28.3,0,51.3-23,51.3-51.3C253.9,171.5,230.9,148.5,202.6,148.5z"/>
<path class="st1" d="M268,150.8c-4.1,0-8.2,0.5-12,1.4c-11.7-16.3-30.8-26.9-52.3-26.9s-40.7,10.6-52.3,26.9
	c-3.9-0.9-7.9-1.4-12-1.4c-28.3,0-51.3,23-51.3,51.3c0,28.3,23,51.3,51.3,51.3c11.1,0,21.3-3.5,29.7-9.5c10,6.4,21.9,10.1,34.6,10.1
	s24.6-3.7,34.6-10.1c8.4,6,18.6,9.5,29.7,9.5c28.3,0,51.3-23,51.3-51.3C319.3,173.7,296.3,150.8,268,150.8z"/>
<path class="st1" d="M333.7,150.8c-4.1,0-8.2,0.5-12,1.4c-11.7-16.3-30.8-26.9-52.3-26.9s-40.7,10.6-52.3,26.9
	c-3.9-0.9-7.9-1.4-12-1.4c-28.3,0-51.3,23-51.3,51.3c0,28.3,23,51.3,51.3,51.3c11.1,0,21.3-3.5,29.7-9.5c10,6.4,21.9,10.1,34.6,10.1
	c12.7,0,24.6-3.7,34.6-10.1c8.4,6,18.6,9.5,29.7,9.5c28.3,0,51.3-23,51.3-51.3C385,173.7,362,150.8,333.7,150.8z"/>
</svg>
